<svg xmlns="http://www.w3.org/2000/svg" width="25" height="25" fill="none" viewBox="0 0 25 25">
  <path fill="#fff" d="m14.724 3.501.497-.05-.002-.02-.003-.019-.492.09Zm0 0-.498.05.002.02.004.02.492-.09Zm.35 1.626.376-.33-.377.33Zm.817.34.033.498-.033-.499Zm1.397-.903-.3-.4-.008.006-.009.007.317.387Zm0 0 .3.4.009-.007.008-.006-.317-.387Zm.776-.521-.13-.483.13.483Zm.615.03-.178.468.178-.468Zm.72.596.354-.354-.354.354Zm.93.93-.353.354.354-.353Zm.596.721-.467.177.468-.177Zm.031.614.483.13-.483-.13Zm-.521.777.387.316-.387-.316Zm-.902 1.396.498.033-.498-.033Zm.338.818.33-.376-.33.376Zm1.626.35.05-.498-.05.498Zm.917.18-.25.433.25-.433Zm.413.456-.456.206.456-.206Zm0 3.178-.456-.206.456.206Zm-.413.456.25.433-.25-.433Zm-.917.18.05.498-.05-.498Zm-1.625.35.33.376-.33-.376Zm-.34.818.5-.033-.5.033Zm.903 1.396-.387.317.387-.317Zm.521.776.483-.13-.483.13Zm-.03.615-.468-.178.468.178Zm-.596.72-.354-.354.354.354Zm-.93.93.353.354-.354-.353Zm-.001 0 .354.354-.354-.353Zm-.72.596-.178-.467.178.467Zm-.615.031-.13.483.13-.483Zm-.776-.521.317-.387-.317.387Zm-1.397-.903.033-.498-.033.498Zm-.818.34.377.329-.377-.33Zm-.35 1.625-.497-.05.498.05Zm-.18.918.434.25-.434-.25Zm-.455.412-.206-.455.206.455Zm-3.178 0 .205-.455-.205.456Zm-.456-.412-.434.25.434-.25Zm-.18-.918-.498.05.498-.05Zm-.35-1.626-.376.33.376-.33Zm-.818-.338.033.499-.033-.5Zm-1.397.902.317.387-.317-.387Zm-.776.521-.13-.482.13.482Zm-.614-.03.177-.468-.177.468Zm-.72-.596.353-.354-.354.354Zm-.931-.93-.354.353.354-.354Zm0 0 .353-.354-.353.353Zm-.596-.721.467-.177-.467.177Zm-.03-.614-.484-.13.483.13Zm.52-.776.387.316-.387-.317Zm.903-1.397.499.032-.5-.033Zm-.339-.818-.33.376.33-.376Zm-1.626-.35.05-.497-.05.497Zm-.917-.18-.25.433.25-.433Zm-.413-.456.456-.206-.456.206Zm0-3.178.456.205-.456-.205Zm.413-.456-.25-.433.25.433Zm.917-.18.05.497.02-.002.02-.003-.09-.492Zm0 0v-.5h-.045l-.044.008.09.492Zm0 0v.5h.025l.025-.003-.05-.497Zm1.627-.35.33.376-.33-.376Zm.338-.817.5-.033-.5.033ZM4.563 7.71l.387-.316-.016-.02-.018-.017-.353.353Zm0 0-.387.317.015.02.018.017.354-.354Zm-.522-.776.483-.13-.483.13Zm.03-.614.468.177-.467-.177ZM6.32 4.073l-.178-.468.178.468Zm.614-.03-.13.482.13-.483Zm.776.52-.316.387.316-.387Zm1.397.903.033-.5-.033.5Zm.818-.34.376.33-.376-.33Zm.35-1.625.497.05-.497-.05Zm.18-.917.433.25-.433-.25Zm.456-.413-.205-.456.205.456Zm3.177 0-.205.456.205-.456Zm.457.413-.434.25.434-.25Zm.672.828-.984.179.984-.179Zm.234 1.386c-.015-.017-.06-.082-.105-.32a13.408 13.408 0 0 1-.124-1.026l-.995.1c.046.451.082.824.137 1.112.053.282.138.568.334.793l.753-.66Zm.408.17a.5.5 0 0 1-.409-.17l-.752.659a1.5 1.5 0 0 0 1.227.508l-.066-.998Zm1.113-.791a13.4 13.4 0 0 1-.812.637c-.201.137-.279.152-.3.153l.065.998c.298-.02.56-.162.798-.324.242-.165.531-.403.883-.69l-.634-.774Zm.017-.013.6.8-.6-.8Zm.946-.604a1.52 1.52 0 0 0-.48.238 8.59 8.59 0 0 0-.483.379l.634.774c.195-.16.32-.262.422-.334a.562.562 0 0 1 .167-.092l-.26-.965Zm.922.046a1.5 1.5 0 0 0-.922-.046l.26.965a.5.5 0 0 1 .307.016l.355-.935Zm.897.71a8.401 8.401 0 0 0-.443-.425 1.52 1.52 0 0 0-.454-.285l-.355.935a.56.56 0 0 1 .157.108c.094.08.209.195.387.374l.708-.708Zm.93.93-.93-.93-.708.707.931.93.707-.707Zm.71.897a1.521 1.521 0 0 0-.285-.455c-.111-.129-.257-.274-.425-.442l-.707.707c.179.179.293.293.374.388a.57.57 0 0 1 .108.156l.935-.354Zm.046.921a1.5 1.5 0 0 0-.046-.921l-.935.354a.5.5 0 0 1 .015.308l.966.26Zm-.617.963c.15-.184.28-.343.379-.482.1-.145.189-.298.238-.48l-.966-.26a.56.56 0 0 1-.092.166 8.052 8.052 0 0 1-.333.423l.774.633Zm-.79 1.113c0-.021.015-.099.152-.3.135-.197.338-.446.638-.813l-.774-.633c-.288.352-.525.641-.69.883-.162.238-.305.5-.324.798l.997.065Zm.169.41a.5.5 0 0 1-.17-.41l-.997-.065a1.5 1.5 0 0 0 .508 1.226l.659-.752Zm1.346.227a13.41 13.41 0 0 1-1.026-.124c-.239-.045-.304-.09-.32-.104l-.66.752c.225.197.511.281.794.335.288.054.66.091 1.112.136l.1-.995Zm1.117.245a1.522 1.522 0 0 0-.508-.171c-.168-.03-.373-.05-.61-.074l-.099.995c.252.025.413.042.535.063.117.021.16.04.183.053l.499-.866Zm.62.684a1.5 1.5 0 0 0-.62-.684l-.5.866a.5.5 0 0 1 .207.229l.912-.41Zm.131 1.136c0-.238 0-.443-.012-.613a1.52 1.52 0 0 0-.12-.523l-.912.41a.56.56 0 0 1 .035.188c.009.124.01.285.01.538h1Zm0 1.316v-1.316h-1v1.316h1Zm-.132 1.136a1.51 1.51 0 0 0 .12-.523c.013-.17.012-.375.012-.613h-1c0 .253 0 .414-.01.538a.56.56 0 0 1-.034.188l.912.41Zm-.62.684a1.5 1.5 0 0 0 .62-.684l-.912-.41a.5.5 0 0 1-.206.228l.499.866Zm-1.116.245c.236-.024.44-.044.609-.074.173-.03.344-.076.508-.17l-.5-.867a.56.56 0 0 1-.182.053 8.048 8.048 0 0 1-.534.063l.099.995Zm-1.346.228c.017-.015.082-.06.32-.104a13.41 13.41 0 0 1 1.026-.124l-.1-.995c-.452.045-.824.082-1.111.136-.283.054-.57.138-.794.334l.66.753Zm-.17.409a.5.5 0 0 1 .17-.41l-.659-.752a1.5 1.5 0 0 0-.508 1.228l.998-.066Zm.791 1.113c-.3-.367-.503-.616-.637-.813-.137-.201-.152-.278-.153-.3l-.998.066c.02.297.162.56.324.797.165.242.402.531.69.883l.774-.634Zm.617.962a1.524 1.524 0 0 0-.238-.48c-.098-.14-.229-.299-.379-.482l-.774.633c.16.195.262.32.334.422a.562.562 0 0 1 .091.167l.966-.26Zm-.046.922a1.5 1.5 0 0 0 .046-.922l-.966.26a.5.5 0 0 1-.015.307l.935.355Zm-.71.896c.168-.168.314-.313.425-.442.115-.133.218-.277.285-.454l-.935-.355a.56.56 0 0 1-.108.157 7.992 7.992 0 0 1-.374.387l.707.707Zm0 0-.707-.707.707.707Zm-.93.931.93-.93-.707-.708-.93.931.707.707Zm0 0-.707-.707.707.707Zm-.897.71c.177-.067.32-.17.454-.285.13-.111.275-.257.443-.425l-.707-.707a8.044 8.044 0 0 1-.388.374.559.559 0 0 1-.157.108l.355.935Zm-.922.046a1.5 1.5 0 0 0 .922-.046l-.355-.935a.5.5 0 0 1-.307.015l-.26.966Zm-.962-.617c.183.15.342.28.482.378.144.101.298.19.48.239l.26-.966a.563.563 0 0 1-.166-.092 8.12 8.12 0 0 1-.423-.333l-.633.774Zm-1.114-.79c.022 0 .1.015.3.152.198.135.447.338.814.638l.633-.774c-.352-.288-.641-.525-.883-.69-.238-.162-.5-.305-.798-.325l-.066.998Zm-.409.169a.5.5 0 0 1 .41-.17l.065-.997a1.5 1.5 0 0 0-1.226.508l.752.659Zm-.228 1.346c.047-.471.08-.791.124-1.026.046-.239.09-.304.104-.32l-.752-.66c-.196.225-.28.511-.334.794-.055.288-.091.66-.137 1.113l.995.099Zm-.244 1.117c.094-.163.14-.334.171-.508.03-.168.05-.373.073-.609l-.995-.1a8.116 8.116 0 0 1-.063.535.561.561 0 0 1-.053.183l.867.5Zm-.684.62a1.5 1.5 0 0 0 .684-.62l-.867-.499a.5.5 0 0 1-.228.207l.41.912Zm-1.136.132c.237 0 .443 0 .613-.013a1.51 1.51 0 0 0 .523-.12l-.41-.911a.56.56 0 0 1-.188.034c-.124.01-.286.01-.538.01v1Zm-1.316 0h1.316v-1H11.84v1Zm-1.136-.133c.172.078.347.107.523.12.17.013.375.013.613.013v-1c-.253 0-.415 0-.539-.01a.558.558 0 0 1-.187-.034l-.41.912Zm-.684-.619a1.5 1.5 0 0 0 .684.62l.41-.912a.5.5 0 0 1-.228-.207l-.867.5Zm-.245-1.117c.024.237.044.441.073.609.031.174.077.345.171.508l.867-.499a.56.56 0 0 1-.053-.183 8.053 8.053 0 0 1-.063-.534l-.995.1Zm-.228-1.346c.014.016.059.082.104.32.044.235.077.555.124 1.026l.995-.1c-.045-.451-.082-.824-.137-1.112-.053-.282-.137-.569-.334-.793l-.752.66Zm-.409-.17a.5.5 0 0 1 .409.17l.752-.659a1.5 1.5 0 0 0-1.227-.508l.066.998Zm-1.113.791c.366-.3.616-.503.813-.637.2-.137.278-.152.3-.153l-.066-.998c-.298.02-.56.162-.797.324-.242.165-.532.402-.883.69l.633.774Zm-.963.617a1.52 1.52 0 0 0 .48-.238 8.59 8.59 0 0 0 .483-.379l-.633-.774a8.07 8.07 0 0 1-.423.334.562.562 0 0 1-.167.092l.26.965Zm-.922-.046a1.5 1.5 0 0 0 .922.046l-.26-.965a.5.5 0 0 1-.307-.016l-.355.935Zm-.896-.71c.168.168.313.314.442.425.134.115.278.218.454.285l.355-.935a.56.56 0 0 1-.157-.108 8.091 8.091 0 0 1-.387-.373l-.707.707Zm-.93-.93.93.93.707-.707-.93-.93-.708.707Zm-.001 0 .707-.707-.707.707Zm-.71-.897c.067.177.17.321.285.455.112.129.257.274.425.442l.707-.707a8.08 8.08 0 0 1-.374-.388.56.56 0 0 1-.108-.156l-.935.354Zm-.046-.921a1.5 1.5 0 0 0 .046.921l.935-.354a.5.5 0 0 1-.015-.308l-.966-.26Zm.617-.963c-.15.184-.28.343-.378.482-.101.145-.19.298-.239.48l.966.26a.56.56 0 0 1 .092-.166 8.09 8.09 0 0 1 .333-.423l-.774-.633Zm.79-1.113c0 .022-.015.099-.152.3-.134.197-.338.446-.638.813l.774.633c.288-.352.525-.641.69-.883.162-.238.305-.5.325-.798l-.998-.065Zm-.168-.41a.5.5 0 0 1 .169.41l.998.065a1.5 1.5 0 0 0-.508-1.226l-.66.752Zm-1.347-.227c.472.047.792.08 1.026.124.239.045.304.09.32.104l.66-.752c-.225-.197-.511-.281-.794-.335-.287-.054-.66-.091-1.112-.136l-.1.995Zm-1.117-.245c.164.095.335.14.509.171.168.03.372.05.608.074l.1-.995a8.053 8.053 0 0 1-.535-.063.56.56 0 0 1-.183-.053l-.499.866Zm-.619-.684a1.5 1.5 0 0 0 .62.684l.498-.866a.5.5 0 0 1-.206-.229l-.912.41Zm-.132-1.136c0 .238 0 .443.012.613.014.176.043.35.12.523l.912-.41a.56.56 0 0 1-.034-.188 8.087 8.087 0 0 1-.01-.538h-1Zm0-1.316v1.316h1v-1.316h-1Zm.132-1.136a1.521 1.521 0 0 0-.12.523c-.012.17-.012.376-.012.613h1c0-.253 0-.414.01-.538a.561.561 0 0 1 .034-.188l-.912-.41Zm.62-.684a1.5 1.5 0 0 0-.62.684l.912.41a.5.5 0 0 1 .206-.228l-.499-.866Zm1.117-.245c-.237.024-.441.044-.61.074a1.54 1.54 0 0 0-.508.17l.5.867a.56.56 0 0 1 .182-.053 8.52 8.52 0 0 1 .535-.063l-.1-.995Zm-.04.006.179.984-.18-.984Zm.09-.008v1-1Zm1.296-.226c-.016.015-.082.059-.32.104a13.41 13.41 0 0 1-1.026.124l.1.995c.451-.045.824-.082 1.112-.136.282-.054.569-.138.793-.335l-.659-.752Zm.17-.409a.5.5 0 0 1-.17.41l.66.751a1.5 1.5 0 0 0 .507-1.226l-.998.065Zm-.791-1.113c.3.366.503.616.637.813.137.201.152.279.153.3l.998-.065c-.02-.298-.162-.56-.324-.798-.165-.242-.403-.532-.69-.883l-.774.633Zm.033.037.707-.707-.707.707Zm-.65-1c.048.182.137.336.238.48.098.14.228.299.379.483l.774-.633a8.079 8.079 0 0 1-.334-.423.56.56 0 0 1-.092-.167l-.966.26Zm.045-.922a1.5 1.5 0 0 0-.046.922l.966-.26a.5.5 0 0 1 .015-.307l-.935-.355Zm.71-.897a9.307 9.307 0 0 0-.425.443 1.522 1.522 0 0 0-.285.454l.935.355a.56.56 0 0 1 .108-.157 8.08 8.08 0 0 1 .374-.387l-.707-.708Zm.93-.93-.93.93.707.708.93-.93-.706-.708Zm.897-.71c-.176.067-.32.17-.454.285-.13.111-.274.257-.442.425l.707.707a8.22 8.22 0 0 1 .387-.374.56.56 0 0 1 .157-.108l-.355-.935Zm.922-.046a1.5 1.5 0 0 0-.922.046l.355.935a.5.5 0 0 1 .307-.015l.26-.966Zm.963.617c-.184-.15-.343-.28-.482-.378a1.522 1.522 0 0 0-.48-.239l-.26.966a.56.56 0 0 1 .166.092c.102.071.227.173.423.333l.633-.774Zm1.113.79c-.022 0-.1-.015-.3-.152a13.424 13.424 0 0 1-.813-.638l-.633.774c.351.288.64.525.883.69.237.162.5.305.797.325l.066-.998Zm.409-.169a.5.5 0 0 1-.409.17l-.066.998a1.5 1.5 0 0 0 1.227-.509l-.752-.659Zm.228-1.345c-.047.47-.08.79-.124 1.025-.045.239-.09.304-.104.32l.752.66c.197-.225.281-.511.335-.794.054-.288.09-.66.136-1.112l-.995-.1Zm.244-1.117c-.094.164-.14.335-.17.508-.03.168-.05.372-.074.609l.995.1c.025-.252.042-.413.063-.535a.56.56 0 0 1 .053-.183l-.867-.5Zm.685-.62a1.5 1.5 0 0 0-.685.62l.867.499a.5.5 0 0 1 .228-.207l-.41-.912Zm1.136-.132c-.238 0-.443 0-.613.013a1.52 1.52 0 0 0-.523.12l.41.911a.56.56 0 0 1 .187-.034c.124-.01.286-.01.539-.01v-1Zm1.316 0H11.84v1h1.316v-1Zm1.136.132a1.522 1.522 0 0 0-.523-.12c-.17-.012-.376-.012-.613-.012v1c.252 0 .414 0 .538.01a.56.56 0 0 1 .187.034l.41-.912Zm.684.62a1.5 1.5 0 0 0-.684-.62l-.41.912a.5.5 0 0 1 .227.207l.867-.5Zm.244 1.117a8.217 8.217 0 0 0-.073-.609 1.52 1.52 0 0 0-.171-.508l-.867.499a.56.56 0 0 1 .053.183c.022.122.038.283.063.534l.995-.1Zm.944 9.048a3.667 3.667 0 0 1-3.666 3.667v1a4.667 4.667 0 0 0 4.666-4.667h-1ZM12.5 8.833a3.667 3.667 0 0 1 3.666 3.667h1A4.667 4.667 0 0 0 12.5 7.833v1ZM8.832 12.5a3.667 3.667 0 0 1 3.667-3.667v-1A4.667 4.667 0 0 0 7.832 12.5h1Zm3.667 3.667A3.667 3.667 0 0 1 8.832 12.5h-1a4.667 4.667 0 0 0 4.667 4.667v-1Z"/>
</svg>
