<svg xmlns="http://www.w3.org/2000/svg" width="151" height="150" fill="none" viewBox="0 0 151 150">
  <path stroke="#33363F" stroke-width="2" d="M31.75 79.748c0-8.486 0-12.73 1.715-16.46 1.716-3.729 4.937-6.49 11.38-12.013l6.25-5.357C62.741 35.936 68.564 30.945 75.5 30.945s12.759 4.991 24.405 14.973l6.25 5.357c6.443 5.523 9.664 8.284 11.38 12.014 1.715 3.73 1.715 7.973 1.715 16.459v26.502c0 11.785 0 17.678-3.661 21.339-3.661 3.661-9.554 3.661-21.339 3.661h-37.5c-11.785 0-17.678 0-21.339-3.661-3.661-3.661-3.661-9.554-3.661-21.339V79.748Z"/>
  <path stroke="#33363F" stroke-linecap="round" stroke-linejoin="round" stroke-width="2" d="M91.125 131.25v-36.5a1 1 0 0 0-1-1h-29.25a1 1 0 0 0-1 1v36.5"/>
</svg>
