<svg xmlns="http://www.w3.org/2000/svg" width="26" height="26" fill="none" viewBox="0 0 26 26">
  <path fill="#fff" fill-rule="evenodd" d="M2.167 13C2.167 7.017 7.017 2.167 13 2.167c5.983 0 10.833 4.85 10.833 10.833a10.81 10.81 0 0 1-3.796 8.237 7.5 7.5 0 0 0-14.073 0A10.81 10.81 0 0 1 2.167 13Zm16.146 9.41.008.029A10.784 10.784 0 0 1 13 23.833c-1.935 0-3.75-.506-5.322-1.394a5.5 5.5 0 0 1 10.633-.029ZM10.75 9.75a2.25 2.25 0 1 1 4.5 0 2.25 2.25 0 0 1-4.5 0ZM13 5.5a4.25 4.25 0 1 0 0 8.5 4.25 4.25 0 0 0 0-8.5Z" clip-rule="evenodd"/>
  <rect width="20.667" height="20.667" x="2.667" y="2.667" stroke="#fff" rx="10.333"/>
</svg>
