<svg xmlns="http://www.w3.org/2000/svg" version="1.1" xmlns:xlink="http://www.w3.org/1999/xlink" xmlns:svgjs="http://svgjs.dev/svgjs" width="1440" height="906" preserveAspectRatio="none" viewBox="0 0 1440 906"><g mask="url(&quot;#SvgjsMask2074&quot;)" fill="none"><rect width="1440" height="906" x="0" y="0" fill="url(&quot;#SvgjsLinearGradient2075&quot;)"></rect><path d="M1440 0L950.45 0L1440 153.33z" fill="rgba(255, 255, 255, .1)"></path><path d="M950.45 0L1440 153.33L1440 361.37L852.8000000000001 0z" fill="rgba(255, 255, 255, .075)"></path><path d="M852.8 0L1440 361.37L1440 466.33L407.81999999999994 0z" fill="rgba(255, 255, 255, .05)"></path><path d="M407.81999999999994 0L1440 466.33L1440 522.63L166.26999999999992 0z" fill="rgba(255, 255, 255, .025)"></path><path d="M0 906L586.17 906L0 474.52z" fill="rgba(0, 0, 0, .1)"></path><path d="M0 474.52L586.17 906L692.8299999999999 906L0 359.96z" fill="rgba(0, 0, 0, .075)"></path><path d="M0 359.96000000000004L692.8299999999999 906L925.3999999999999 906L0 163.43000000000004z" fill="rgba(0, 0, 0, .05)"></path><path d="M0 163.43000000000006L925.3999999999999 906L1091.9599999999998 906L0 54.87000000000006z" fill="rgba(0, 0, 0, .025)"></path></g><defs><mask id="SvgjsMask2074"><rect width="1440" height="906" fill="#ffffff"></rect></mask><linearGradient x1="90.73%" y1="114.74%" x2="9.27%" y2="-14.74%" gradientUnits="userSpaceOnUse" id="SvgjsLinearGradient2075"><stop stop-color="rgba(0, 158, 149, 0.2)" offset="0"></stop><stop stop-color="rgba(0, 158, 149, 0.3)" offset="1"></stop><stop stop-color="rgba(0, 158, 149, 1)" offset="1"></stop></linearGradient></defs></svg>