<svg xmlns="http://www.w3.org/2000/svg" width="30" height="30" fill="none" viewBox="0 0 30 30">
  <path stroke="#BEBEBE" stroke-width="2" d="m7.508 18.755-.845-.48c.136-.24.33-.432.481-.584l.04-.04 9.445-9.444.038-.038c.3-.3.591-.592.864-.8.307-.234.705-.455 1.219-.455.514 0 .912.22 1.219.455.273.208.564.5.864.8l.038.038.922.922.038.038c.3.3.592.591.8.864.234.307.455.705.455 1.219 0 .514-.22.912-.455 1.219-.208.273-.5.564-.8.864l-.038.038-9.444 9.444-.04.04c-.152.153-.343.346-.585.482l-4.216-4.582Zm0 0-.845-.48c-.137.243-.202.506-.254.715l-.013.055-.914 3.654a3.822 3.822 0 0 0-.114.564c-.02.207-.027.659.342 1.027l.707-.707m1.091-4.828-1.091 4.828m0 0-.707.707c.368.37.82.362 1.027.342m-.32-1.049.32 1.05m0 0c.18-.018.383-.07.53-.106m-.53.105.53-.105m0 0 .034-.009m-.035.009.035-.009m0 0 3.654-.913m-3.654.913 3.654-.913m0 0 .055-.014m-.055.014.055-.014m0 0c.209-.052.472-.117.714-.254l-.714.254Z"/>
  <path fill="#BEBEBE" d="m15.625 9.375 3.75-2.5 3.75 3.75-2.5 3.75-5-5Z"/>
</svg>
