<svg xmlns="http://www.w3.org/2000/svg" width="30" height="30" fill="none" viewBox="0 0 30 30">
  <path stroke="#000" stroke-width="2" d="m21.831 13.333-.038.038-9.444 9.444-.04.04c-.152.153-.343.346-.585.482l10.107-10.004Zm0 0c.3-.3.592-.591.8-.864.234-.307.455-.705.455-1.219 0-.514-.22-.912-.455-1.219-.208-.273-.5-.564-.8-.864l-.038-.038-.922-.922a46.468 46.468 0 0 0-.038-.038c-.3-.3-.591-.592-.864-.8-.307-.234-.705-.455-1.219-.455-.514 0-.912.22-1.219.455-.273.208-.564.5-.864.8l-.038.038-9.444 9.444-.04.04c-.153.152-.346.343-.482.585l.845.479-.845-.48c-.137.243-.202.506-.254.715l-.013.055-.914 3.654a3.822 3.822 0 0 0-.114.564c-.02.207-.027.659.342 1.027l.707-.707m15.414-10.25L6.417 23.583m0 0-.707.707c.368.37.82.362 1.027.342.18-.017.383-.068.53-.105l.034-.009 3.654-.913m-4.538-.022 4.538.022m0 0 .055-.014m-.055.014.055-.014m0 0c.209-.052.472-.117.714-.254l-.714.254Z"/>
  <path fill="#000" d="m15.625 9.375 3.75-2.5 3.75 3.75-2.5 3.75-5-5Z"/>
</svg>
