<svg xmlns="http://www.w3.org/2000/svg" width="40" height="40" fill="none" viewBox="0 0 40 40">
  <path fill="#111" fill-opacity=".6" fill-rule="evenodd" d="m21.482 11.851 4.023-4.023c1.333-1.333 2-2 2.828-2 .829 0 1.495.667 2.829 2l1.01 1.01c1.333 1.334 2 2 2 2.829 0 .828-.667 1.495-2 2.828l-3.987 3.987a18.833 18.833 0 0 1-6.703-6.63Zm-1.454 1.454L7.523 25.81c-.425.425-.638.638-.777.899-.14.261-.199.556-.317 1.145l-1.282 6.41c-.066.333-.1.5-.005.594.095.095.26.061.593-.005l6.41-1.282c.59-.118.885-.177 1.146-.317.261-.14.474-.352.899-.777L26.727 19.94a20.836 20.836 0 0 1-6.7-6.635Z" clip-rule="evenodd"/>
</svg>
