<svg xmlns="http://www.w3.org/2000/svg" width="150" height="150" fill="none" viewBox="0 0 150 150">
  <path fill="#FEFEFF" fill-opacity=".25" d="M31.25 74.058c0-1.009 0-1.513.222-1.944.221-.43.632-.724 1.453-1.31L73.838 41.58c.56-.4.842-.601 1.162-.601.32 0 .601.2 1.162.601l40.913 29.224c.821.586 1.232.88 1.453 1.31.222.43.222.935.222 1.944v52.192c0 .943 0 1.414-.293 1.707-.293.293-.764.293-1.707.293h-83.5c-.943 0-1.414 0-1.707-.293-.293-.293-.293-.764-.293-1.707V74.058Z"/>
  <path fill="#CFCFCF" d="M18.75 77.637c0 .266 0 .4.084.441.084.041.19-.04.4-.205l54.538-42.418c.59-.459.885-.688 1.228-.688.343 0 .638.23 1.228.688l54.538 42.418c.21.164.316.246.4.205.084-.041.084-.175.084-.441V66.728c0-.48 0-.72-.102-.928-.101-.208-.291-.356-.67-.65l-54.25-42.195c-.59-.459-.885-.688-1.228-.688-.343 0-.638.23-1.228.688L19.522 65.15c-.379.294-.569.442-.67.65-.102.208-.102.448-.102.928v10.909ZM88.625 93.75h-27.25a2 2 0 0 0-2 2v35.35c0 .083.067.15.15.15h30.95a.15.15 0 0 0 .15-.15V95.75a2 2 0 0 0-2-2Z"/>
  <rect width="12.5" height="25" x="100" y="28.25" fill="#CFCFCF" rx=".5"/>
</svg>
