<svg xmlns="http://www.w3.org/2000/svg" width="100" height="100" fill="none" viewBox="0 0 100 100">
  <path stroke="#666" stroke-linejoin="round" stroke-opacity=".35" stroke-width="2" d="M87.5 70.529v-49.03a.45.45 0 0 0-.617-.419l-20.081 8.033a.45.45 0 0 1-.277.018l-33.05-8.262a.45.45 0 0 0-.277.018l-20.415 8.167a.45.45 0 0 0-.283.418v49.03a.45.45 0 0 0 .617.418l20.081-8.032a.45.45 0 0 1 .276-.02l33.051 8.264a.45.45 0 0 0 .277-.02l20.415-8.165a.45.45 0 0 0 .283-.418Z"/>
  <path stroke="#666" stroke-opacity=".35" stroke-width="2" d="M66.666 79.166v-50M33.334 70.834v-50"/>
</svg>
