<svg xmlns="http://www.w3.org/2000/svg" width="30" height="30" fill="none" viewBox="0 0 30 30">
  <path stroke="#000" stroke-linecap="round" stroke-width="2" d="M12.5 18.75V15m5 3.75V15M3.75 8.75h22.5v0c-1.644 0-2.466 0-3.019.454a1.998 1.998 0 0 0-.277.277c-.454.553-.454 1.375-.454 3.019V21c0 1.886 0 2.828-.586 3.414C21.328 25 20.386 25 18.5 25h-7c-1.886 0-2.828 0-3.414-.586C7.5 23.828 7.5 22.886 7.5 21v-8.5c0-1.644 0-2.466-.454-3.019a2.001 2.001 0 0 0-.277-.277C6.216 8.75 5.394 8.75 3.75 8.75v0Zm8.835-4.537c.143-.133.456-.25.893-.334A8.35 8.35 0 0 1 15 3.75c.55 0 1.085.045 1.522.13.437.083.75.2.893.333"/>
</svg>
