<svg xmlns="http://www.w3.org/2000/svg" width="24" height="24" fill="none" viewBox="0 0 24 24">
  <path stroke="#fff" stroke-linecap="round" d="M8.499 12.5h7m-7 3h4"/>
  <path stroke="#fff" d="M5.499 5.9c0-.84 0-1.26.163-1.581a1.5 1.5 0 0 1 .656-.656c.32-.163.74-.163 1.58-.163h4.607c.366 0 .55 0 .722.041.154.037.3.098.434.18.152.093.281.223.54.482l3.595 3.594c.26.26.389.39.482.54.082.135.143.281.18.434.04.173.04.356.04.723V18.1c0 .84 0 1.26-.163 1.581a1.5 1.5 0 0 1-.655.655c-.321.164-.741.164-1.581.164h-8.2c-.84 0-1.26 0-1.581-.163a1.5 1.5 0 0 1-.656-.656c-.163-.32-.163-.74-.163-1.581V5.9Z"/>
  <path stroke="#fff" d="M12.499 3.5v3.6c0 .84 0 1.26.163 1.581a1.5 1.5 0 0 0 .656.656c.32.163.74.163 1.58.163h3.6"/>
</svg>
